<svg xmlns="http://www.w3.org/2000/svg" fill="none" viewBox="0 0 64 64"><path fill="#bef264" d="M0 0h64v64H0z"/><g clip-path="url(#a)"><path fill="#18181b" d="M32.005 5.336C17.304 5.336 5.344 17.297 5.344 32s11.96 26.664 26.661 26.664S58.667 46.703 58.667 32 46.707 5.336 32.005 5.336m2.57 46.731 6.681-10.285c2.056-3.186 4.47-7.094 4.47-11.667 0-7.453-5.551-12.85-13.774-12.85-7.656 0-13.62 5.397-13.62 12.695s5.14 12.234 11.612 12.234c1.799 0 3.137-.358 4.01-1.13l-6.97 10.543C18.245 49.369 11.767 41.429 11.767 32c0-11.158 9.08-20.239 20.237-20.239S52.242 20.841 52.242 32c0 10.29-7.72 18.804-17.667 20.067m-2.57-15.371c-4.01 0-6.735-2.93-6.735-6.784 0-3.855 2.773-6.886 6.735-6.886s6.783 2.774 6.783 6.837c0 4.064-2.826 6.838-6.783 6.838z"/></g><defs><clipPath id="a"><path fill="#fff" d="M5.333 5.333h53.333v53.333H5.333z"/></clipPath></defs></svg>
